<svg width="1788" height="1788" viewBox="0 0 1788 1788" fill="none" xmlns="http://www.w3.org/2000/svg">
<path d="M763.811 1594.3L754.871 1487.67L700.021 1490.84L706.912 1588.43C659.232 1589.64 609.131 1601.47 572.998 1627.64C555.677 1639.93 555.77 1663.77 571.881 1674.57C585.011 1683.14 601.494 1678.39 613.694 1667.5C630.363 1652.5 649.267 1648.59 667.147 1647.85C652.247 1668.71 644.891 1692.64 644.891 1710.8C644.891 1730.36 665.751 1743.11 685.214 1736.04C695.923 1731.94 698.065 1722.72 700.859 1712.75C709.892 1680.44 738.574 1656.69 760.924 1656.69C782.995 1656.69 801.806 1677.83 811.584 1686.68C825.832 1700 841.757 1698.04 849.579 1684.07C857.495 1670.01 850.511 1655.48 837.38 1643.66C816.054 1623.91 798.919 1604.82 763.811 1594.3Z" fill="url(#paint0_linear_776_5)"/>
<path d="M1205.97 1627.82C1166.76 1601 1120.01 1589.46 1068.8 1588.25L1084.53 1487.49L1029.59 1490.65L1018.88 1589.64C983.866 1599.89 964.216 1611.43 935.441 1640.02C921.099 1654.37 919.33 1669.54 930.877 1683.51C940.842 1695.81 961.516 1699.07 977.161 1679.51C993.085 1659.3 1006.4 1652.5 1021.77 1652.5C1050.08 1652.5 1078.57 1680.25 1087.61 1712.57C1090.31 1722.53 1092.45 1731.75 1103.16 1735.85C1122.62 1742.93 1137.52 1730.17 1137.52 1710.61C1137.52 1691.89 1128.12 1669.45 1111.26 1649.34C1136.03 1654.46 1153.54 1664.33 1170.12 1673.36C1186.97 1682.49 1204.66 1680.63 1213.51 1666.01C1223.38 1649.43 1218.17 1636.39 1205.97 1627.82Z" fill="url(#paint1_linear_776_5)"/>
<path d="M1568.22 791.376C1571.58 652.154 1534.42 503.527 1437.57 357.321C1509.18 324.634 1525.48 234.302 1514.03 201.616C1477.8 237.189 1459.92 243.894 1416.9 248.83C1507.13 180.197 1482.55 83.6263 1462.06 41.9062C1405.16 119.386 1340.16 142.947 1221.61 151.887C1098.22 83.3469 983.493 65.4669 886.084 65.4669H885.339C787.837 65.4669 673.107 83.3469 549.717 151.887C431.169 142.947 374.269 119.386 321.281 41.9062C291.016 83.6263 271.087 163.993 361.325 244.919C346.891 251.717 302.749 232.999 266.524 197.518C255.069 230.205 266.524 318.581 343.352 357.041C249.854 483.878 207.296 634.74 207.296 791.376C151.421 977.626 253.859 1257 507.345 1397.9C609.969 1480.5 735.408 1539.45 887.481 1539.45H888.599C1024.1 1539.45 1157.08 1493.35 1284.29 1397.9C1377.41 1258.21 1582.29 950.899 1568.22 791.376Z" fill="url(#paint2_linear_776_5)"/>
<path d="M1157.54 286.918C1031.17 286.918 923.334 362.815 885.619 466.277C839.987 362.815 747.328 286.918 607.082 286.918C435.825 286.918 297.069 439.364 297.069 617.977C297.069 790.538 429.865 933.205 595.534 933.205C710.544 933.205 804.693 874.537 859.357 783.274H904.523C966.079 870.532 1053.9 931.064 1173.19 931.064C1338.86 931.064 1482.83 788.396 1482.83 615.835C1482.83 448.49 1348.73 286.918 1157.54 286.918Z" fill="url(#paint3_linear_776_5)"/>
<path d="M595.348 367.471C466.463 367.471 349.498 481.829 349.498 621.423C349.498 754.219 457.337 864.852 594.044 864.852C724.699 864.852 835.611 752.543 835.611 621.051C835.611 486.206 734.384 367.471 595.348 367.471Z" fill="white"/>
<path d="M1184.55 368.775C1055.66 368.775 937.489 483.505 937.489 623.099C937.489 753.474 1047.28 864.852 1183.99 864.852C1314.65 864.852 1428.82 751.798 1428.82 620.306C1428.82 485.461 1323.59 368.775 1184.55 368.775Z" fill="white"/>
<path d="M618.443 429.399C522.338 429.399 437.781 513.119 437.781 619.468C437.781 719.763 521.593 803.483 621.609 803.483C718.459 803.483 804.693 716.876 804.693 618.257C804.693 514.888 724.699 429.399 618.443 429.399Z" fill="url(#paint4_linear_776_5)"/>
<path d="M1162.2 429.399C1060.41 429.399 974.088 516.006 974.088 619.468C974.088 719.763 1057.99 803.483 1160.8 803.483C1257.65 803.483 1343.89 716.876 1343.89 618.257C1343.89 514.888 1263.89 429.399 1162.2 429.399Z" fill="url(#paint5_linear_776_5)"/>
<path d="M1161.27 474.286C1082.21 474.286 1024.75 541.801 1024.75 615.277C1024.75 686.983 1087.14 743.231 1153.45 743.231C1228.23 743.231 1279.82 678.416 1279.82 612.856C1279.82 544.688 1227.2 474.286 1161.27 474.286Z" fill="#1E103D"/>
<path d="M625.334 476.428C552.511 476.428 497.474 539.66 497.474 609.969C497.474 681.955 557.912 742.579 627.104 742.579C700.021 742.579 752.636 677.764 752.636 612.204C752.636 543.943 694.433 476.428 625.334 476.428Z" fill="#1E103D"/>
<path d="M534.165 457.523C490.769 457.523 466.091 495.145 466.091 529.415C466.091 568.9 499.336 588.177 529.136 588.177C571.508 588.177 595.348 552.045 595.348 522.804C595.348 488.068 567.597 457.523 534.165 457.523Z" fill="white"/>
<path d="M1245.08 457.523C1201.68 457.523 1183.9 490.489 1183.9 521.965C1183.9 563.965 1215.93 588.177 1245.73 588.177C1288.11 588.177 1302.82 552.045 1302.82 522.804C1302.82 488.068 1278.51 457.523 1245.08 457.523Z" fill="white"/>
<path d="M688.939 678.322C670.872 678.322 664.819 692.943 664.819 700.859C664.819 716.876 677.298 723.767 688.101 723.767C704.77 723.767 712.686 708.495 712.686 698.065C712.686 685.586 702.256 678.322 688.939 678.322Z" fill="#6A4E7A"/>
<path d="M885.432 729.355C835.517 729.355 822.107 774.893 822.107 793.984C822.107 839.149 882.639 895.211 885.712 895.211C895.956 895.211 953.6 826.205 953.6 797.709C953.6 752.543 916.443 729.355 885.432 729.355Z" fill="url(#paint6_linear_776_5)"/>
<path d="M885.712 729.355V895.211C895.956 895.211 953.6 826.205 953.6 797.709C953.6 752.543 916.629 729.355 885.712 729.355Z" fill="url(#paint7_linear_776_5)"/>
<path d="M229.03 793.869C168.592 810.072 138.047 898.914 138.047 983.285C138.047 1166.56 260.693 1351.59 467.989 1390.89L503.656 1397.32L500.024 1386.42C430.18 1271.6 407.551 1175.68 389.112 1014.11C375.795 898.262 294.776 781.762 229.03 793.869Z" fill="url(#paint8_linear_776_5)"/>
<mask id="mask0_776_5" style="mask-type:alpha" maskUnits="userSpaceOnUse" x="138" y="793" width="366" height="605">
<path d="M229.03 793.869C168.592 810.072 138.047 898.914 138.047 983.285C138.047 1166.56 260.693 1351.59 467.989 1390.89L503.656 1397.32L500.024 1386.42C430.18 1271.6 407.551 1175.68 389.112 1014.11C375.795 898.262 294.776 781.762 229.03 793.869Z" fill="url(#paint9_linear_776_5)"/>
</mask>
<g mask="url(#mask0_776_5)">
<path d="M468.5 1407.72C403.5 1418.22 310.5 1331.72 315.5 1198.72C328.5 1271.72 392.5 1378.72 468.5 1407.72Z" fill="#442661"/>
<path d="M370 1381.23C297.566 1361.47 231.5 1282.72 250.516 1145.73C257.821 1242.73 320.5 1328.72 370 1381.23Z" fill="#442661"/>
</g>
<path d="M1559.63 793.869C1620.06 810.072 1650.61 898.914 1650.61 983.285C1650.61 1166.56 1527.96 1351.59 1320.67 1390.89L1285 1397.32L1288.63 1386.42C1358.48 1271.6 1381.11 1175.68 1399.54 1014.11C1412.86 898.262 1493.88 781.762 1559.63 793.869Z" fill="url(#paint10_linear_776_5)"/>
<mask id="mask1_776_5" style="mask-type:alpha" maskUnits="userSpaceOnUse" x="1285" y="793" width="366" height="605">
<path d="M1559.63 793.869C1620.06 810.072 1650.61 898.914 1650.61 983.285C1650.61 1166.56 1527.96 1351.59 1320.67 1390.89L1285 1397.32L1288.63 1386.42C1358.48 1271.6 1381.11 1175.68 1399.54 1014.11C1412.86 898.262 1493.88 781.762 1559.63 793.869Z" fill="url(#paint11_linear_776_5)"/>
</mask>
<g mask="url(#mask1_776_5)">
<path d="M1320.16 1407.72C1385.16 1418.22 1478.16 1331.72 1473.16 1198.72C1460.16 1271.72 1396.16 1378.72 1320.16 1407.72Z" fill="#442661"/>
<path d="M1418.66 1381.23C1491.09 1361.47 1557.16 1282.72 1538.14 1145.73C1530.83 1242.73 1468.16 1328.72 1418.66 1381.23Z" fill="#442661"/>
</g>
<defs>
<linearGradient id="paint0_linear_776_5" x1="709.985" y1="1487.21" x2="709.985" y2="1738.64" gradientUnits="userSpaceOnUse">
<stop stop-color="#6E379B"/>
<stop offset="1" stop-color="#522677"/>
</linearGradient>
<linearGradient id="paint1_linear_776_5" x1="1070.94" y1="1487.21" x2="1070.94" y2="1738.64" gradientUnits="userSpaceOnUse">
<stop stop-color="#6E379B"/>
<stop offset="1" stop-color="#522677"/>
</linearGradient>
<linearGradient id="paint2_linear_776_5" x1="887.854" y1="41.9062" x2="887.854" y2="1539.36" gradientUnits="userSpaceOnUse">
<stop stop-color="#A963BF"/>
<stop offset="0.49" stop-color="#8459B6"/>
<stop offset="0.76" stop-color="#493A79"/>
<stop offset="1" stop-color="#192469"/>
</linearGradient>
<linearGradient id="paint3_linear_776_5" x1="889.716" y1="286.918" x2="889.716" y2="933.112" gradientUnits="userSpaceOnUse">
<stop stop-color="#BA77D0"/>
<stop offset="1" stop-color="#7856A4"/>
</linearGradient>
<linearGradient id="paint4_linear_776_5" x1="621.237" y1="429.399" x2="621.237" y2="803.483" gradientUnits="userSpaceOnUse">
<stop stop-color="#110635"/>
<stop offset="1" stop-color="#6A4E7A"/>
</linearGradient>
<linearGradient id="paint5_linear_776_5" x1="1158.48" y1="429.399" x2="1158.48" y2="803.483" gradientUnits="userSpaceOnUse">
<stop stop-color="#110635"/>
<stop offset="1" stop-color="#6A4E7A"/>
</linearGradient>
<linearGradient id="paint6_linear_776_5" x1="887.854" y1="729.355" x2="887.854" y2="895.211" gradientUnits="userSpaceOnUse">
<stop stop-color="#D89100"/>
<stop offset="1" stop-color="#FFD43B"/>
</linearGradient>
<linearGradient id="paint7_linear_776_5" x1="919.703" y1="729.355" x2="919.703" y2="895.211" gradientUnits="userSpaceOnUse">
<stop stop-color="#FFD43B"/>
<stop offset="1" stop-color="#FFC526"/>
</linearGradient>
<linearGradient id="paint8_linear_776_5" x1="320.758" y1="792.751" x2="320.758" y2="1397.6" gradientUnits="userSpaceOnUse">
<stop stop-color="#7A44A6"/>
<stop offset="1" stop-color="#673695"/>
</linearGradient>
<linearGradient id="paint9_linear_776_5" x1="320.758" y1="792.751" x2="320.758" y2="1397.6" gradientUnits="userSpaceOnUse">
<stop stop-color="#7A44A6"/>
<stop offset="1" stop-color="#673695"/>
</linearGradient>
<linearGradient id="paint10_linear_776_5" x1="1467.9" y1="792.751" x2="1467.9" y2="1397.6" gradientUnits="userSpaceOnUse">
<stop stop-color="#7A44A6"/>
<stop offset="1" stop-color="#673695"/>
</linearGradient>
<linearGradient id="paint11_linear_776_5" x1="1467.9" y1="792.751" x2="1467.9" y2="1397.6" gradientUnits="userSpaceOnUse">
<stop stop-color="#7A44A6"/>
<stop offset="1" stop-color="#673695"/>
</linearGradient>
</defs>
</svg>
